<svg width="60" height="60" viewBox="0 0 60 60" xmlns="http://www.w3.org/2000/svg" role="img" aria-label="monkeyword">
  <rect width="60" height="60" rx="14" fill="#111827"/>
  <circle cx="19" cy="23" r="9" fill="#F97316"/>
  <circle cx="41" cy="23" r="9" fill="#F97316"/>
  <circle cx="30" cy="31" r="21" fill="#FDBA74"/>
  <path d="M15 31c2-9 9-15 15-15s13 6 15 15c-5-2-10-3-15-3s-10 1-15 3z" fill="#FB923C"/>
  <circle cx="23" cy="31" r="4" fill="#111827"/>
  <circle cx="37" cy="31" r="4" fill="#111827"/>
  <circle cx="24.5" cy="29.5" r="1.2" fill="#FFFFFF"/>
  <circle cx="38.5" cy="29.5" r="1.2" fill="#FFFFFF"/>
  <path d="M27 38c1.8 1.5 4.2 1.5 6 0" fill="none" stroke="#111827" stroke-width="2.5" stroke-linecap="round"/>
  <path d="M27 35h6l-3 3z" fill="#111827"/>
  <path d="M13 48c5 4 11 6 17 6s12-2 17-6" fill="none" stroke="#22C55E" stroke-width="4" stroke-linecap="round"/>
</svg>
